<?xml version="1.0" encoding="UTF-8" standalone="no"?>
<svg
   xmlns:dc="http://purl.org/dc/elements/1.1/"
   xmlns:cc="http://creativecommons.org/ns#"
   xmlns:rdf="http://www.w3.org/1999/02/22-rdf-syntax-ns#"
   xmlns:svg="http://www.w3.org/2000/svg"
   xmlns="http://www.w3.org/2000/svg"
   xmlns:sodipodi="http://sodipodi.sourceforge.net/DTD/sodipodi-0.dtd"
   xmlns:inkscape="http://www.inkscape.org/namespaces/inkscape"
   id="Icon"
   viewBox="0 0 58.299999 58.279999"
   version="1.1"
   sodipodi:docname="elstat_logo.svg"
   width="58.299999"
   height="58.279999"
   inkscape:version="0.92+devel unknown">
  <metadata
     id="metadata18">
    <rdf:RDF>
      <cc:Work
         rdf:about="">
        <dc:format>image/svg+xml</dc:format>
        <dc:type
           rdf:resource="http://purl.org/dc/dcmitype/StillImage" />
        <dc:title>ELSTAT</dc:title>
      </cc:Work>
    </rdf:RDF>
  </metadata>
  <defs
     id="defs16" />
  <sodipodi:namedview
     pagecolor="#ffffff"
     bordercolor="#666666"
     inkscape:document-rotation="0"
     borderopacity="1"
     objecttolerance="10"
     gridtolerance="10"
     guidetolerance="10"
     inkscape:pageopacity="0"
     inkscape:pageshadow="2"
     inkscape:window-width="1770"
     inkscape:window-height="999"
     id="namedview14"
     showgrid="false"
     fit-margin-top="0"
     fit-margin-left="0"
     fit-margin-right="0"
     fit-margin-bottom="0"
     inkscape:zoom="5.83"
     inkscape:cx="4.1061274"
     inkscape:cy="16.676082"
     inkscape:window-x="0"
     inkscape:window-y="27"
     inkscape:window-maximized="0"
     inkscape:current-layer="Icon" />
  <title
     id="title2">ELSTAT</title>
  <g
     id="Logo"
     transform="translate(-13.3,-27.11)"
     style="fill:#4c3d35;fill-opacity:1">
    <path
       d="m 43.06,63.69 a 0.58,0.58 0 0 0 0,-0.25 c -0.18,0.05 -0.2,0 -0.37,-0.07 0.44,0.05 0.14,-0.39 -0.11,0 0,-0.74 0.43,-0.48 1.12,-0.48 0.69,0 0.73,-0.05 0.73,0.75 -0.35,-0.02 -1.11,0.21 -1.37,0.05 z m 0.84,-4.08 z m 0.36,0.91 a 3.15,3.15 0 0 1 0.15,1.91 c -0.14,0.35 -0.47,0.2 -0.92,0.2 -0.45,0 -0.75,0.12 -0.92,-0.19 a 5.35,5.35 0 0 1 0,-1.71 c 0,-0.2 -0.12,-1 0,-1.12 a 3.56,3.56 0 0 1 1.24,0 c 0,0 0.13,0.26 0.14,0.31 0.08,-0.18 0.15,-0.1 0,-0.32 0.69,-0.08 0.46,0.44 0.46,1 z m -0.64,-0.19 a 1.78,1.78 0 0 0 -0.25,-0.07 0.39,0.39 0 0 0 0.1,0.17 2.45,2.45 0 0 1 -0.23,-0.12 0.39,0.39 0 0 0 -0.05,0.26 c 0.21,0 0.42,-0.01 0.42,-0.24 z m 0.11,-0.2 c -0.08,-0.01 -0.26,0.08 0,0 z m 0.13,0.14 c -0.06,0 0,-0.13 -0.12,0 -0.12,0.13 0.1,0 0.12,0.01 z m 0.54,-4.79 -0.74,0.66 c 0.74,0 0.74,0.1 0.74,-0.66 z m -0.21,1.82 c -0.15,-0.19 -0.36,0 -0.23,0.19 0.35,0.11 0.44,0.5 0.44,0.95 h -0.08 a 0.73,0.73 0 0 0 0,0.37 c 0,0 0.07,-0.05 0.11,-0.06 0,0.8 -0.06,0.67 -0.85,0.67 0,0 0,0 0,-0.06 0.06,-0.19 -0.16,-0.17 -0.19,0.05 h 0.14 c -0.26,0 -0.84,0.09 -1,-0.07 -0.16,-0.16 0,-1 0,-1.28 a 0.56,0.56 0 0 0 0.11,-0.1 0.46,0.46 0 0 0 -0.11,-0.49 c 0,-0.11 0,-0.53 0.09,-0.61 0.09,-0.08 -0.06,-0.33 -0.08,-0.27 0.08,-0.2 0.18,-0.32 0.18,0 0,0 0,0 0.09,-0.06 a 1.14,1.14 0 0 0 -0.05,0.16 c 0.14,0 0.18,0.17 0.16,0.32 0.17,0 0.33,0.22 0.38,0.25 0.05,0.03 0.45,0 0.39,-0.42 -0.38,0.09 -0.67,0 -0.72,-0.42 0.45,0 1.24,-0.16 1.41,0.16 0.17,0.32 0.14,1.12 -0.19,0.72 z m -1.36,0.55 a 0.36,0.36 0 0 0 -0.09,0.22 z m 0.23,-0.62 c 0,0 0.07,-0.07 0,-0.1 -0.15,0.12 -0.06,0.06 0,0.1 z m 0.15,1 c 0.24,-0.31 -0.12,-0.42 -0.13,0.1 0.09,0.04 0.07,-0.02 0.13,-0.07 z m 0.28,0.39 c 0,-0.11 -0.14,-0.05 -0.08,-0.19 -0.17,0.19 -0.08,0.2 -0.15,0.44 a 0.56,0.56 0 0 0 0.23,-0.21 z m 0.39,-0.5 c -0.09,0 0.1,0 0.13,0 0.03,0 0,-0.05 0,-0.08 0,-0.03 -0.01,0.12 -0.13,0.12 z m -1.2,-4.31 1,2.29 h -0.74 c 0.06,-0.26 -0.16,-0.42 -0.08,-0.62 -0.1,0 -0.17,-0.07 -0.29,-0.06 v -1.88 a 0.8,0.8 0 0 0 0.11,0.31 z m 0.06,0.6 c 0,0.08 0,0 0,-0.08 0,-0.08 0.01,0.09 0.01,0.12 z m 2.06,-5 c 0,0 0,-0.23 -0.19,-0.06 -0.19,0.17 0.56,0.23 0.67,0.23 -0.16,0.02 -0.39,0.06 -0.47,-0.11 z m 1.66,3.64 h -1.84 c 0,0.62 0,1.25 0,1.88 0.38,-0.29 1.97,-1.26 1.85,-1.82 z m 0,-0.22 a 7.82,7.82 0 0 1 -1.48,0 c -0.51,-0.11 -0.37,-0.13 -0.37,-0.74 0,0.16 0,0.19 0,0.32 0.16,-0.06 0.14,0 0.24,-0.06 0.1,-0.06 0,0.06 0,0.11 h 0.14 l -0.07,-0.11 a 0.45,0.45 0 0 1 0.1,-0.1 c 0,0 -0.06,0 -0.06,0 0.19,-0.08 0.13,0 0.08,0.09 a 0.79,0.79 0 0 0 0.22,0.18 c 0,-0.3 0.16,-0.35 0.2,-0.65 a 1.67,1.67 0 0 0 -0.33,0.22 0.42,0.42 0 0 0 -0.48,-0.11 c 0,-0.48 -0.23,-1.62 0,-2 0.13,-0.24 -0.07,-0.07 0.22,-0.18 a 3.63,3.63 0 0 1 1.26,0 c 0.25,0 0.26,-0.06 0.37,0.1 0.11,0.16 0,0.72 0,0.93 z m -0.56,-2 c -0.07,-0.2 -0.32,-0.21 -0.49,-0.09 0.13,0.26 0.37,0.34 0.5,0.14 z m -1.29,8.73 z m 1.85,-13 A 10.42,10.42 0 0 0 44.62,46 c 0,0.67 -0.24,2.09 0.1,2.55 0.34,0.46 0.52,0.18 0.86,0.1 0.09,0 0.68,0 0.71,0 0.41,-0.27 0.18,-1.55 0.18,-2.08 z M 44.62,52.1 Z M 46,64.17 a 0.76,0.76 0 0 0 0.08,-0.25 c 0,0 0,0 0,0.06 0,0.06 0,-0.12 0.05,-0.19 -0.4,-0.1 -0.74,0.14 -1.11,0 -0.16,-0.06 -0.22,0 -0.33,-0.12 a 2.09,2.09 0 0 1 0,-0.81 4.79,4.79 0 0 1 1.67,0 1.41,1.41 0 0 1 0.16,1.25 C 46.38,64.27 46,64.4 46,64.17 Z m -1,-0.65 c -0.05,0 -0.07,-0.05 -0.12,0 -0.05,0.05 0.12,0 0.12,0 z m -0.62,-8.33 -0.66,0.58 a 6.58,6.58 0 0 1 -0.87,-2.24 v 0.1 l -0.22,-0.52 c 0.31,0 1.6,-0.19 1.79,0 0.19,0.19 -0.02,1.72 -0.02,2.08 z M 43.19,53.7 Z m 0.71,1.47 c -0.18,-0.15 -0.46,-0.76 -0.5,-0.22 0.15,0 0.29,0.08 0.19,0.21 l 0.07,0.09 A 2.22,2.22 0 0 0 43.9,55.16 Z M 40.49,55 c 0,0.2 0.31,0.7 0.37,0.42 0.22,0 0.41,0.11 0.23,0.31 l 0.19,0.07 c -0.05,0 -0.08,0 -0.1,0.05 0.46,0.1 0.4,0 0.63,0.25 0,0 -0.11,-0.14 -0.1,-0.11 0.3,-0.37 -0.95,-1 -1.22,-1.1 a 0.63,0.63 0 0 1 0,0.11 z m 1.83,3.42 c 0,0.17 0.11,0.75 0,0.89 -0.11,0.14 -0.63,0.05 -0.82,0.05 -0.19,0 -0.92,0.11 -1,0 -0.08,-0.11 0,-0.8 0,-1 0,0 0,0.08 0.05,0.13 0.05,0.05 0,-0.09 0.08,-0.07 a 0.41,0.41 0 0 1 0.19,0.19 h -0.14 a 0.69,0.69 0 0 0 0.08,0.16 c 0,0 0,0 0.1,0 0.1,0 0,0 0,0 h 0.12 c 0,0 0,-0.07 0,-0.09 a 0.71,0.71 0 0 0 0.18,0 c -0.06,-0.05 -0.05,0 -0.1,-0.09 -0.05,-0.09 0.08,0 0.16,0 0.08,0 0.72,-0.14 0.17,-0.29 0,0 0.07,0 0.05,-0.05 -0.02,-0.05 0,-0.27 -0.22,-0.21 0.18,0.3 -0.1,0.16 -0.24,0 -0.14,-0.16 0,-0.46 0,-0.44 -0.09,-0.14 -0.41,-0.15 -0.33,-0.33 a 2.46,2.46 0 0 1 0.84,-0.17 h -0.07 c 0.14,-0.13 0.48,-0.27 0.32,0 l 0.18,0.07 c 0,0 0,0 0,0.05 0.19,0 0.27,0.17 0.3,0.33 0.14,-0.08 0.09,0 0.25,0.05 -0.14,0.4 -0.13,0.64 -0.15,0.85 z m -1.47,0.6 c -0.06,0 0,-0.12 -0.14,-0.05 a 0.13,0.13 0 0 0 0.15,0.09 z m 0.58,-1.59 a 0.38,0.38 0 0 0 0.24,-0.17 0.28,0.28 0 0 0 -0.29,-0.09 c 0.1,0.06 0,0 0,0.07 h 0.15 c -0.21,0.11 -0.15,0.12 -0.1,0.23 z m 0,0.4 c 0.08,0.17 0.16,0.1 0.23,-0.1 -0.28,-0.04 -0.23,0.02 -0.24,0.14 z m 0.16,0.52 A 0.18,0.18 0 0 1 41.5,58.26 l -0.09,0.09 c 0.06,0.08 0.12,0.02 0.17,0.03 z m 0.12,0.38 a 0.54,0.54 0 0 0 -0.43,0.17 0.77,0.77 0 0 0 0.42,-0.14 z m 0.36,-1 z M 40.5,54.56 a 0.78,0.78 0 0 0 0.26,-0.19 c -0.07,-0.13 -0.11,0 0,-0.18 0,0 0,0.12 0,0.14 0.52,-0.17 -0.05,-0.52 -0.24,-0.65 a 7,7 0 0 1 -0.03,0.91 z m 0.24,7 c -0.26,-0.19 -0.22,-0.44 -0.24,-0.71 0.19,0 0.21,0.22 0.43,0.22 L 40.85,60.8 a 0.29,0.29 0 0 1 -0.19,-0.37 c 0,-0.09 0.06,-0.12 0,-0.25 a 2.88,2.88 0 0 0 -0.18,-0.48 0.73,0.73 0 0 0 0,-0.11 c 0.28,0 1.64,-0.17 1.8,0 0.16,0.17 0,1.8 0,2.17 0,0.83 0.11,0.84 -0.73,0.84 -0.19,0 -1,0.12 -1.09,0 -0.09,-0.12 0,-0.68 0,-0.86 0.16,0.11 0.19,-0.01 0.26,-0.15 z m 1.56,-1.51 z m -0.85,-0.21 z m -0.35,2.54 c 0,0.07 0.06,0.14 0.12,0.18 -0.03,-0.09 -0.1,-0.09 -0.15,-0.16 z m -0.36,-7.67 z m 3.69,-1.84 c -0.38,0 -1.61,0.19 -1.85,0 a 8.19,8.19 0 0 1 0,-1.61 c 0.22,0 0.86,0.76 0.68,0.29 -0.09,-0.23 -0.32,-0.27 -0.45,-0.42 -0.13,-0.15 -0.23,-0.46 -0.23,-0.95 0.25,0 0.45,-0.15 0.66,-0.27 0,0 -0.06,0 -0.06,0 0.27,0 0.91,-0.13 1.12,0 0.21,0.13 0.13,0.26 0.13,0.59 z M 44,50.16 c 0,-0.32 -0.6,-0.15 -0.49,0.22 0.06,0.19 0.43,0.12 0.53,0.07 A 0.65,0.65 0 0 0 44,50.16 Z m -3.41,3.12 a 2.35,2.35 0 0 1 0.52,0.75 l 1,-0.92 h -1.62 c -0.01,0.13 0.05,0.12 0.15,0.17 z M 40.49,57 a 0.47,0.47 0 0 0 0.48,-0.06 c 0,0 -0.06,-0.08 -0.08,-0.11 -0.02,-0.03 0.09,0 0.1,0 H 40.8 c 0,0 0,-0.08 -0.19,0 -0.19,0.08 0,0 -0.11,-0.09 A 1.91,1.91 0 0 0 40.49,57 Z m 3.91,-7.4 z m -2.18,4.62 c -0.05,0 0.05,0 0.11,0 v 1.25 a 1.6,1.6 0 0 1 -0.78,-0.38 c -0.26,-0.21 -0.24,-0.73 -0.71,-0.47 l 1.48,-1.36 c 0.01,0.3 0.11,0.74 -0.1,0.96 z m -0.67,0 c -0.11,0 -0.16,-0.09 -0.23,0.08 0.14,-0.01 0.15,-0.06 0.23,-0.12 z m 0.56,0.14 a 0.83,0.83 0 0 1 -0.38,-0.23 c 0.03,0.16 0.17,0.42 0.38,0.18 z m 1.55,-4.72 a 0.33,0.33 0 0 0 -0.38,0 0.86,0.86 0 0 0 0.39,-0.04 z m -1.33,2.48 c -0.09,0 -0.11,-0.14 -0.15,-0.05 -0.07,-0.25 -0.68,-1.05 -0.95,-0.61 -0.27,0.44 0.63,0.7 0.79,0.82 -0.27,0.1 -0.49,-0.16 -0.77,-0.08 0.08,-0.7 -0.37,-0.66 -0.76,-1.07 a 13.14,13.14 0 0 0 0,1.36 c 0.06,0.53 0,0.44 0.54,0.44 0.2,0 1.16,0.14 1.31,0 0.15,-0.14 -0.01,-0.71 -0.01,-0.85 z m 0,-0.92 c -0.28,-0.3 -0.65,0.33 0,0.45 a 2.85,2.85 0 0 1 0,-0.49 z M 44.4,46 a 10.55,10.55 0 0 0 -1.85,-0.18 v 2.45 c 0,-0.09 0.12,-0.26 0.31,-0.14 a 2.37,2.37 0 0 1 0.7,-0.11 c 0.06,0 0.07,0.25 0.12,0.29 0.05,0.04 0.28,0.11 0.43,0.26 0.11,-0.15 0.08,-0.15 0.28,-0.09 z M 32.52,59.61 a 10.48,10.48 0 0 0 1.54,2.92 20.56,20.56 0 0 0 0,-2.54 C 34,59.56 34.15,59.73 33.82,59.61 a 4.54,4.54 0 0 0 -1.3,0 z m 1.28,-6.93 a 0.53,0.53 0 0 1 0.1,0.21 H 32.52 A 10.48,10.48 0 0 1 34.06,50 c 0,0.57 0.31,2.52 -0.26,2.68 z m -0.41,-0.29 c -0.06,0 -0.1,0 -0.1,0.05 0,0.05 0.05,-0.01 0.1,-0.04 z m 0.21,0.28 z m 0.11,-0.34 z m 2.41,2 c -0.06,0.07 0,0.13 -0.11,0.19 l 0.11,0.07 c 0.01,-0.02 0,-0.12 0.01,-0.22 z M 34.06,57 c 0,-0.66 0.07,-0.63 -0.58,-0.63 H 32 a 10.56,10.56 0 0 0 0.18,1.81 z m 0,2.4 v -2.15 c -0.4,0.24 -1.7,0.75 -1.87,1.15 a 2.38,2.38 0 0 0 0.26,1 c 0.08,0.06 0.35,0 0.44,0 a 9.74,9.74 0 0 0 1.17,-0.01 z M 36.13,56 a 0.44,0.44 0 0 0 -0.21,0.16 c 0.25,0.05 0.13,-0.08 0.21,-0.16 z m -2.07,0.16 v -1.44 c 0,-0.25 0.17,-1.42 0,-1.6 a 4.29,4.29 0 0 0 -1.46,0 c -0.63,0.29 -0.63,2.33 -0.63,3 z m 2.07,-6.28 a 5.56,5.56 0 0 0 -1.63,0 c -0.35,0.13 -0.22,0.31 -0.22,0.78 0,0.47 -0.19,1.91 0.14,2 -0.06,0.07 -0.09,0.24 -0.14,0.29 a 1.47,1.47 0 0 0 0.38,0 h -0.14 c 0.43,0.07 0.4,0 0.57,-0.21 0,0 0.19,-0.19 0.18,0 0,-0.19 -0.09,-0.31 -0.15,-0.53 0.31,-0.18 0.59,-0.21 0.76,-0.52 a 3.33,3.33 0 0 0 0.25,-1.83 z M 36,54.79 c 0,0.05 0,0.14 0.09,0.19 -0.15,0.12 -0.15,0.19 0,0.24 a 1.16,1.16 0 0 1 0,0.27 c -0.06,0.08 -0.19,0 0,0.18 0,-0.06 -0.08,0 -0.07,-0.11 a 0.08,0.08 0 0 0 0.08,0 c 0,0.51 -1.52,0.95 -1.85,0.61 -0.33,-0.34 0,-1.5 0,-1.79 0,-0.29 0,-0.61 0,-0.88 h 0.1 c 0,0 0,0.05 0,0 a 2.9,2.9 0 0 0 0.42,0.16 C 34.7,53.34 34.3,53.54 34.35,53.09 h 0.53 c 0,0.07 0,0.09 -0.08,0.16 0.15,0 0.13,0.05 0.26,0.05 -0.05,0.07 0,0 -0.1,0 -0.1,0 0.09,0.05 0.1,0.12 0.01,0.07 -0.07,0 -0.1,0 0.11,0.19 0.25,0.46 0.53,0.41 0,0.32 0.44,0.53 0.51,0.85 0.18,0 0,0 0.13,0.06 -0.05,-0.01 -0.05,0.04 -0.13,0.05 z m -1.11,-0.61 c 0,0 -0.07,-0.12 -0.12,-0.16 -0.01,0.11 0.09,0.09 0.16,0.15 z M 35,54.3 Z m 0.94,1 A 0.37,0.37 0 0 0 35.9,55 a 0.91,0.91 0 0 0 -0.28,0.72 1.11,1.11 0 0 0 0.12,-0.15 c 0,0 0,0.11 0.09,0.11 a 0.3,0.3 0 0 0 0.1,-0.14 c 0,0 0.07,0 0.05,-0.18 0,0 0,0.08 0,0.06 A 1.62,1.62 0 0 0 36,55.29 Z m 13,7.35 a 0.8,0.8 0 0 0 -0.23,0 c 0,-0.7 -0.43,-2.44 0.48,-2.61 a 0.36,0.36 0 0 0 -0.48,0 v -0.19 c 0,0 0.06,0.07 0.12,0.05 0.06,-0.02 0,-0.06 -0.12,-0.09 0,-0.31 1.35,-0.29 1.63,-0.19 0.28,0.1 0.16,0 0.22,0.41 a 3,3 0 0 1 0,1.11 3.48,3.48 0 0 1 -0.7,0.65 c 0.18,0.13 0,0.49 0.08,0.56 0.24,0.21 0.37,-0.28 0.62,-0.34 0,0.59 0.12,0.62 -0.45,0.64 -0.34,0 -0.74,-0.01 -1.11,-0.01 z M 50,60.74 c 0.07,0.05 0.07,0 0.18,0.07 0.11,0.07 0,0 0,0 a 0.23,0.23 0 0 0 0.1,-0.22 v 0 h -0.11 a 0.32,0.32 0 0 1 0.09,-0.09 c -0.14,0.1 -0.13,0.14 -0.26,0.24 z m -1.11,0 z m 1,0.8 c 0.05,0 0,0.09 0.07,0 0.07,-0.09 -0.03,-0.03 -0.06,-0.03 z m -0.33,0.08 c 0.08,0 0.14,0.1 0.2,0 0.06,-0.1 -0.15,-0.02 -0.2,-0.02 z m -0.45,-0.51 a 0.09,0.09 0 0 0 0.14,0 c 0.1,0.1 0,0.14 0.16,0 -0.1,-0.06 -0.21,-0.17 -0.29,-0.02 z M 36,57.48 c 0.05,0 0,0.11 0.13,0.09 V 57 c -0.22,0 -0.61,0 -0.66,-0.3 0,0 0.05,0.06 0.08,0.05 A 1.9,1.9 0 0 0 35.4,56.48 c 0,0.38 -0.25,0.34 -0.13,0 -0.25,0.15 -0.86,0.38 -1,0.63 a 4.31,4.31 0 0 0 0,1.4 c 0,0.3 -0.08,0.72 0.1,0.86 a 5.08,5.08 0 0 0 1.64,0 c 0.17,-0.14 0.15,-0.73 0.1,-1 C 36.06,58.1 36,58.08 35.92,57.85 35.84,57.62 35.76,57.13 36,57.48 Z m -1.71,-0.63 0.8,-0.49 c -0.63,0 -0.81,-0.17 -0.81,0.49 z m 1.85,-0.49 c -0.23,0 -0.57,0.1 -0.24,0.1 a 4.16,4.16 0 0 0 0.24,0.4 z m -0.6,0 z m 12.92,1.36 c 0,0 0,0.06 0,0.09 -0.23,-0.22 -0.86,-0.22 -0.74,0.18 0.22,-0.21 0.45,0.2 0.81,-0.07 v 0.62 c -0.06,0 -0.09,0 -0.15,0 0.18,0 0.36,0.7 0.15,0.86 -0.21,0.16 -0.31,-0.15 -0.46,-0.13 a 0.38,0.38 0 0 1 0.09,0.16 6.78,6.78 0 0 1 -1.09,0 c -0.46,-0.08 -0.38,0 -0.38,-0.51 0,-0.8 0.29,-0.33 0.56,-0.91 -0.16,0.07 -0.44,0.2 -0.56,0.09 a 3.89,3.89 0 0 1 0,-1.54 c 0.19,-0.25 1.23,-0.28 1.57,-0.16 0.34,0.12 0.17,0 0.23,0.41 a 8.1,8.1 0 0 1 0,1 c 0,0 0.01,-0.09 -0.04,-0.09 z m -0.5,1 a 0.28,0.28 0 0 1 0.07,0.11 0.22,0.22 0 0 0 -0.08,-0.15 z m 0,0.22 a 0.54,0.54 0 0 1 0.14,0.1 C 48.09,58.87 48,58.92 47.95,58.9 Z m -0.51,-0.65 c 0,0 0,-0.11 -0.12,0 a 0.68,0.68 0 0 0 0.11,-0.04 z m 0.13,0 c 0,-0.07 0.05,-0.09 0,-0.16 -0.05,-0.07 0,0.1 0,0.17 0,0.07 0,-0.07 0,0 a 0.66,0.66 0 0 0 0.06,0.19 0.2,0.2 0 0 1 -0.07,-0.28 z m 0.12,0.55 c -0.05,0.07 -0.15,0.09 0,0.25 a 0.65,0.65 0 0 0 -0.01,-0.33 z m -1,-5.6 z m 1.85,-1.33 -1.2,1.06 c 0.21,0 1,0.13 1.18,0 0.18,-0.13 0,-0.97 0,-1.14 z m 0,4.3 h -1.74 c 0,-0.19 0,-0.26 0,-0.39 0,-0.13 0,0 0,0.05 -0.2,-0.35 -0.24,-1.53 0.25,-1.7 0.22,-0.08 -0.16,0.28 -0.29,0.32 0.21,0.29 1.33,0.38 0.7,-0.05 0.18,0.05 0.42,0.44 0.23,0 -0.19,-0.44 -0.38,-0.78 -0.78,-0.67 0,0.18 0,0.07 -0.17,0.19 -0.23,-0.9 1.59,-1 1.85,-0.63 0.26,0.37 0,1.31 0,1.61 z M 47.08,55.94 A 1.3,1.3 0 0 1 46.91,55.88 C 47,55.93 47,55.86 47.07,55.86 Z m 0,0 z m -0.85,0.61 c 0.14,0.12 0.17,0.25 0.2,0.57 a 10.36,10.36 0 0 1 0,1.88 c 0,0.25 0,0.58 -0.27,0.37 a 0.64,0.64 0 0 1 -0.38,0 c -0.11,0 -0.1,-0.19 -0.2,-0.19 -0.1,0 -0.23,0.26 -0.53,0.19 0,0 0,-0.05 0,-0.08 H 45 c -0.06,0.08 0,0.06 -0.05,0 -0.62,0.39 -0.39,-0.8 -0.39,-1.17 0.09,0.12 0.5,0.34 0.42,0 -0.08,-0.34 -0.31,0 -0.39,-0.14 a 3.59,3.59 0 0 1 0,-1.46 c 0.13,-0.33 0.17,-0.22 0.63,-0.22 h 1.21 a 1.19,1.19 0 0 1 -0.17,0.22 z m -0.8,2 c -0.08,-0.05 -0.12,-0.11 -0.18,0 l -0.06,-0.1 a 0.33,0.33 0 0 0 -0.08,0.24 0.39,0.39 0 0 0 0.35,-0.16 z M 46.23,54 c 0,0.09 0,0.11 0,0.19 0.12,0.27 0.2,0.18 0.2,0.67 a 4.11,4.11 0 0 1 0,0.76 c 0,0.06 -0.25,0 -0.27,0.18 a 3.33,3.33 0 0 0 0.24,0.3 c -0.66,0 -2.34,0.4 -1.81,-0.8 0.26,-0.61 1.34,-1.23 1.85,-1.68 v 0.26 C 46.31,53.84 46.32,53.94 46.23,54 Z m -0.65,1.79 z m 0.2,-0.12 c -0.08,-0.06 -0.1,-0.1 -0.19,-0.06 l 0.07,0.18 c 0.1,0.04 0.05,-0.02 0.11,-0.08 z m 2.76,3.9 z m -1.69,-9.68 c -0.35,0.37 -0.16,1.2 -0.16,1.68 0,0.14 -0.11,1.18 0,1.27 0.11,0.09 0.65,-0.29 0.8,-0.42 0.15,-0.13 0.88,-0.59 1,-0.91 a 3.63,3.63 0 0 0 0,-1.23 c 0,-0.54 0,-0.47 -0.53,-0.47 a 2.73,2.73 0 0 0 -1.12,0.12 z m -10.72,9.72 h -1.31 c -0.54,0 -0.43,-0.1 -0.54,0.3 a 6.87,6.87 0 0 0 0,1.6 c 0,0.16 -0.11,1 0,1.12 0.11,0.12 1.13,0 1.31,0 0.49,0 0.42,0.09 0.54,-0.24 a 6,6 0 0 0 0,-1.66 z M 46.79,47.89 c 0,-0.07 0,-0.11 -0.1,-0.13 v 0.74 c 0.25,-0.15 0.16,-0.4 0.1,-0.61 z M 47,49.64 Z m 1.32,10.67 c 0,0.09 0,0.15 0.11,0.18 a 0.92,0.92 0 0 1 0.06,-0.2 v 1.08 c 0,0.19 0.14,1.09 0,1.25 a 3.5,3.5 0 0 1 -1.85,-0.08 c -0.14,-0.23 0,-1.06 0,-1.31 a 4.54,4.54 0 0 1 0,-1.42 c 0.13,-0.26 0.09,-0.19 0.51,-0.19 h 1.24 a 1.22,1.22 0 0 1 -0.08,0.21 c 0.12,0 0.07,0 0.18,0 0.09,0.25 0.05,0.43 -0.12,0.48 z m -0.91,0.42 C 47.34,60.66 47.32,60.6 47.2,60.59 l 0.08,0.12 c -0.12,0 -0.15,0 -0.28,0 0.11,0.29 0.26,0.06 0.46,0.02 z m -1,-0.83 c -0.13,0.11 -0.2,0.29 -0.42,0.31 0.16,0.11 0.34,0 0.46,-0.18 v 2.05 c 0,0.12 0.06,0.5 0,0.56 -0.06,0.06 -0.93,0 -1.09,0 -0.86,0 -0.73,0 -0.73,-0.86 v -2 c 0,0 0.06,0 0.07,0 0.01,0 0,-0.11 0,-0.2 0.15,0.17 0.14,0 0.29,0 h 0.27 c 0,0 0,0.12 0.08,0.12 h 0.25 c 0.08,0 0.18,-0.17 0.45,-0.16 0.27,0.01 0.57,0.02 0.39,0.35 z m -1.54,0.51 c -0.09,0 -0.17,0 -0.23,0.18 0.14,-0.02 0.18,-0.1 0.25,-0.18 z m 0.48,-0.3 c 0,0 0.12,0 0.11,-0.1 -0.01,-0.1 -0.04,0.07 -0.09,0.1 z m -0.17,0.41 c 0.19,0 0.13,-0.19 -0.06,-0.31 -0.08,0.06 -0.08,0.08 -0.11,0.17 -0.03,0.09 0.1,0.06 0.19,0.13 z m 0.31,0.67 c -0.08,-0.1 -0.1,-0.2 -0.25,-0.19 0.15,0.1 0.17,0.2 0,0.29 0.21,0.11 0.18,-0.01 0.27,-0.11 z M 45.9,60 c -0.07,0 -0.09,-0.08 -0.15,0 -0.06,0.08 0.12,0 0.15,0 z m 0.1,1.26 a 0.24,0.24 0 0 0 0.24,0 C 46.14,61.18 46.08,61.23 46,61.22 Z m 2.21,-1.84 z m -7.95,-1 c -0.42,-0.55 -0.07,0.51 0,0.7 z m 8.49,4.89 z m 0,0.14 z M 36.69,55.83 Z m -0.34,-0.29 c 0,0 0.15,0 0,0.08 l 0.21,0.15 c 0.03,-0.22 -0.13,-0.42 -0.21,-0.23 z m 0.86,0.6 c 0,0 0.08,-0.15 -0.07,-0.21 0.11,0.07 0.05,0.12 0.07,0.21 z m -0.86,0 a 2.81,2.81 0 0 0 0.34,0 1.6,1.6 0 0 0 -0.34,-0.24 z m 12.43,6.78 c 0,0 0.12,-0.09 0,-0.06 V 63 a 0.3,0.3 0 0 0 0,-0.08 z M 37.39,56.36 c 0.45,0.32 0.45,0.4 0.77,0 -0.29,0 -0.54,0.11 -0.77,0 z M 40.26,46 c -0.32,0.07 -1.66,0.28 -1.85,0.58 a 2.38,2.38 0 0 0 0,0.71 v 1.84 c 0.37,-0.13 0.59,0 1,0 a 0.94,0.94 0 0 0 0.48,-0.14 c 0,0 0.07,0.11 0.1,0.06 0.03,-0.05 0,-0.22 0,-0.26 0,-0.04 0,-0.28 0.26,-0.25 z m 10.56,7.12 v 1.22 c 0,0.36 -0.18,1.3 0,1.62 0.18,0.32 0.19,0.19 0.66,0.19 h 1.43 c 0,-0.66 0,-2.7 -0.58,-3 C 52,52.94 51.18,53.11 50.82,53.11 Z m 0,6.5 v 1.5 A 0.89,0.89 0 0 0 51,61 c 0.05,0.18 -0.07,0.24 -0.1,0.43 a 6.74,6.74 0 0 0 -0.05,1.07 10.48,10.48 0 0 0 1.54,-2.92 z M 36.46,50 c 0,-0.06 0,-0.13 -0.11,-0.09 v 1 c 0.37,-0.38 0.07,-0.62 0.11,-0.91 z m 14.36,6.41 v 1.42 c 0,0.25 -0.17,1.42 0,1.6 a 4.29,4.29 0 0 0 1.46,0 c 0.63,-0.29 0.63,-2.33 0.63,-3 z M 36.35,54.8 c 0.13,-0.06 0.25,0 0.35,0.18 0,0 0,-0.12 0,-0.12 a 0.83,0.83 0 0 0 0.14,0.1 c 0,-0.17 0,-0.33 -0.18,-0.49 0,0.09 0,0.07 -0.05,0.14 -0.15,-0.1 -0.18,0 -0.22,-0.16 -0.04,-0.16 -0.05,0 -0.07,0 -0.02,0 0.03,0.24 0.03,0.35 z m 0.09,3.07 c -0.13,0 -0.19,1.16 -0.09,1.34 0.1,0.18 0.85,0.18 1.32,0.18 0,-0.36 0.29,-0.36 0.18,-0.76 -0.11,-0.4 -0.5,-0.69 -0.69,-0.54 0.08,-0.44 -0.36,-0.31 -0.41,-0.55 -0.05,-0.24 0.31,-0.25 0.44,-0.44 v 0 c 0,0 -0.07,0 -0.07,0.05 a 0.66,0.66 0 0 0 0.18,-0.52 c 0,0 0,0.06 0.07,0.09 0.07,0.03 0,-0.08 0,-0.07 h 0.12 c -0.2,-0.14 -0.83,-0.54 -1.1,-0.31 a 3.54,3.54 0 0 0 0,1.2 c -0.01,0.16 0.17,0.46 0.05,0.34 z m 1.76,-11.2 c -0.56,0.25 -1.65,0.64 -1.85,1.21 a 4,4 0 0 0 0,1.43 c 0.09,0.43 0,0.33 0.48,0.34 a 3.35,3.35 0 0 0 1.09,0 c 0.66,-0.31 0.28,-2.27 0.28,-2.98 z m 10.56,4.68 1.68,-1.48 c -0.3,0 -1.46,-0.18 -1.66,0 -0.2,0.18 -0.02,1.21 -0.02,1.47 z M 38.2,65.83 v -2.14 c 0,-0.83 0.13,-0.83 -0.73,-0.83 -0.15,0 -1,-0.11 -1.09,0 -0.09,0.11 0,0.55 0,0.67 a 4,4 0 0 0 0,1.15 c 0.16,0.5 1.33,0.94 1.82,1.15 z m 8.27,0.1 a 10.42,10.42 0 0 1 -1.85,0.57 c 0,-0.36 -0.2,-1.44 0,-1.72 0,-0.06 0.25,0 0.34,-0.05 a 8,8 0 0 1 1.51,-0.19 z m -0.48,-1 z m 2.54,-1.31 z m -8.27,-0.74 a 5.47,5.47 0 0 0 -1.63,0 c -0.25,0.1 -0.11,-0.06 -0.22,0.1 -0.11,0.16 0,0.56 0,0.7 a 8.86,8.86 0 0 0 0,1.93 c 0,0.08 0,0.27 0,0.34 0.22,0.32 1.49,0.5 1.85,0.57 z M 42.33,64 c -0.34,-0.09 -0.64,0.06 -0.72,-0.21 a 1.64,1.64 0 0 1 0.12,-0.73 c 0,0.57 0.23,0 0.23,0 0,0 -0.06,-0.14 0.1,-0.1 0.16,0.04 0,0.31 0.27,0.31 0.09,-0.78 -0.7,-0.47 -1.31,-0.47 -0.61,0 -0.54,0 -0.54,0.65 v 2.3 c 0,0.16 -0.07,0.55 0,0.68 0.17,0.3 1.5,0.23 1.85,0.24 z m 6.2,0.72 a 10.48,10.48 0 0 1 -1.85,1.06 v -1.22 c 0.29,0.13 0.42,-0.21 0.48,-0.43 -0.09,-0.11 -0.1,-0.1 0,-0.29 0,0 -0.24,0.26 -0.28,0.26 -0.3,0 -0.38,-1.06 -0.19,-1.25 0.19,-0.19 1.11,0 1.29,0 0.41,0 0.65,-0.1 0.54,0.43 -0.06,0.28 -0.08,0.28 -0.31,0.42 a 1.14,1.14 0 0 0 0.31,-0.06 z m -1.71,0 z m 1.93,-5.39 h 1.31 c 0.54,0 0.43,0.1 0.54,-0.3 a 6.87,6.87 0 0 0 0,-1.6 c 0,-0.16 0.11,-1 0,-1.12 -0.11,-0.12 -1.13,0 -1.31,0 -0.49,0 -0.42,-0.09 -0.54,0.24 a 6,6 0 0 0 0,1.66 z M 50.6,50 a 9.51,9.51 0 0 0 -1.72,1.52 1.13,1.13 0 0 0 -0.12,0.73 c 0,0.54 -0.12,0.51 0.29,0.63 a 3.69,3.69 0 0 0 1.39,0 c 0.23,-0.13 0.14,-0.08 0.16,-0.45 0.05,-0.79 0,-1.62 0,-2.43 z m -13.09,6.4 z m -1.16,3.21 c 0.36,0 1.37,-0.22 1.5,0.18 0.12,0 0,0.19 0.11,0.34 0.11,0.15 0.15,0 0.24,0.24 a 5.91,5.91 0 0 1 0,1.77 c 0,0.56 0,0.49 -0.54,0.49 -0.27,0 -1.14,0.13 -1.31,0 -0.17,-0.13 0,-1.34 0,-1.57 z m 1.68,0.8 c 0,0 0.08,0.08 0.06,-0.09 -0.02,-0.17 -0.03,0.04 -0.09,0.09 z M 37.92,60.34 A 1,1 0 0 1 38,60.2 v 0 c -0.08,0.04 -0.06,0.08 -0.08,0.14 z M 50.6,53.11 h -1.31 c -0.54,0 -0.43,-0.1 -0.54,0.3 a 6.87,6.87 0 0 0 0,1.6 c 0,0.16 -0.11,1 0,1.12 0.11,0.12 1.13,0 1.31,0 0.49,0 0.42,0.09 0.54,-0.24 a 6,6 0 0 0 0,-1.66 z m -3.91,-6.44 v 0.88 c 0.41,-0.31 0.78,0.31 1,0.26 0,0.18 0.14,0.49 0.08,0.65 -0.06,0.16 -0.32,0.13 -0.48,0.29 -0.16,0.16 0.09,0.65 -0.2,0.88 v 0 a 4.12,4.12 0 0 0 1.15,0 c 0.34,-0.12 0.26,0 0.26,-0.5 a 4.63,4.63 0 0 0 0,-1.33 c -0.15,-0.48 -1.32,-0.92 -1.81,-1.13 z m -6.42,4.05 c 0,-0.12 0,-0.23 0,-0.35 -0.22,0.33 -0.3,0.31 -0.58,0.46 0.31,0.32 -0.13,0.74 0,1.16 0.11,0.27 0.49,0.41 0.54,0.76 a 10.62,10.62 0 0 1 0.03,-2.03 z m 4.13,15.83 a 10.55,10.55 0 0 1 -1.85,0.18 v -2.65 c 0.31,0.09 1.73,0.07 1.45,0.7 0.12,0 0.27,0 0.39,0 z M 42.8,65 c -0.07,-0.06 0,-0.16 -0.18,-0.08 C 42.67,65 42.77,65 42.8,65 Z M 40.49,50.62 Z m -0.22,5.95 c -0.1,0 -0.12,0.05 -0.21,0 -0.09,-0.05 0.05,-0.06 0.07,-0.09 a 1.69,1.69 0 0 0 -1.36,0 c 0.12,0.2 0.35,0.22 0.55,0.29 a 3.36,3.36 0 0 1 0.95,0.53 c -0.02,-0.22 -0.01,-0.43 -0.01,-0.73 z m -4.14,6.29 h -1.82 a 10.55,10.55 0 0 0 1.82,1.75 z m 6.2,-12.18 c -0.22,0.06 -0.19,0.2 0,0.33 a 2.55,2.55 0 0 0 0,-0.33 z m -3.89,9.52 a 10.19,10.19 0 0 0 0,1.69 c 0,0.9 0,0.74 0.92,0.74 0.92,0 0.92,0.12 0.92,-0.86 0,-0.29 0.12,-1.25 -0.1,-1.25 0.08,-0.54 -0.67,-0.37 -0.53,0 L 39.6,60.47 c 0,0.08 0,0.05 0,0.15 0,0.1 0,0.38 -0.07,0.55 -0.17,-0.37 -0.33,-0.38 -0.21,-0.78 a 1.43,1.43 0 0 1 -0.33,-0.48 c 0.09,0.17 -0.27,-0.3 -0.14,-0.22 -0.39,-0.19 -0.51,0.15 -0.41,0.51 z m 1.82,-6.32 c -0.05,0.12 -0.14,0.17 0,0.35 a 1.39,1.39 0 0 0 0,-0.35 z m 2.07,-8.11 c -0.35,0 -1.67,-0.07 -1.85,0.2 -0.06,0.1 0,0.52 0,0.63 0,0.37 -0.21,1.59 0,1.89 0.21,0.3 0.6,0 0.79,-0.07 0.19,-0.07 0.74,0.08 1,-0.15 0.33,-0.39 0.06,-1.92 0.06,-2.5 z M 49,62.86 c -0.29,0.31 0.21,0.46 -0.11,0.72 0,0 0,0 0,0 0,0 -0.07,0.07 -0.07,0.07 0,0 0,0 0,-0.06 v 1 a 10.55,10.55 0 0 0 1.82,-1.75 z M 42.33,50 c -0.58,-0.23 -0.34,0.45 0,0.57 z m -0.38,6.09 z M 36.13,49.6 v -1.71 a 10.55,10.55 0 0 0 -1.82,1.75 z m 2.32,6.49 z m 1.82,-1 z m -0.79,1 c 0,0 -0.08,-0.09 -0.15,-0.11 -0.07,-0.02 0,0.09 0,0.11 z m 9.28,-6.5 h 1.82 a 10.55,10.55 0 0 0 -1.82,-1.75 z m 2.07,3.25 h 1.54 A 10.48,10.48 0 0 0 50.82,50 Z m -12.29,3.54 z m 3.79,0 H 42.2 c 0.12,0.06 0.1,-0.01 0.13,-0.02 z m -2.07,-1.54 c -0.21,0.23 -0.43,0 -0.69,0.11 V 55 h 0.1 c 0,0.11 0.16,0.05 0.31,0.12 a 1,1 0 0 0 0.28,-0.3 z"
       id="path4"
       inkscape:connector-curvature="0"
       style="fill:#4c3d35;fill-opacity:1" />
    <path
       d="m 36.6,65.65 1.73,0.89 c -0.55,-0.13 -1.39,1.62 -1,2 L 36.09,67.9 c -0.54,-0.27 -0.41,-0.27 -0.13,-0.81 -0.05,0.46 0.22,0.74 0.67,0.94 l 0.42,-0.82 c -0.33,-0.2 -0.52,0.12 -0.72,0.23 l 0.54,-1 c 0,0.23 -0.07,0.55 0.24,0.71 0.12,-0.24 0.46,-0.67 0.3,-0.9 -0.28,-0.43 -0.93,-0.09 -1.19,0 z m -0.45,-0.18 c -0.06,-0.16 -0.33,-0.36 -0.52,-0.52 0.38,0.48 -0.86,0.86 -1.22,1 0.11,-0.35 0.32,-1.71 0.79,-1.4 l -0.82,-0.7 c 0.14,0.49 -0.86,2.2 -0.62,2.48 0.24,0.28 1.9,-1.15 2.39,-0.86 z M 34.08,63.66 A 1.91,1.91 0 0 0 33.7,63 c 0.25,0.55 -1,0.62 -1.44,0.71 0.19,-0.31 0.73,-1.58 1.1,-1.17 l -0.63,-0.88 c 0,0.51 -1.37,1.93 -1.2,2.26 0.17,0.33 2.15,-0.66 2.55,-0.25 z M 30.7,61.74 c 0.35,-0.13 1.64,-0.88 1.8,-0.36 a 1.9,1.9 0 0 0 -0.42,-1.1 c 0.21,0.43 -0.55,0.56 -0.84,0.67 l -0.29,-0.74 c 0.29,-0.11 0.93,-0.52 1.07,-0.07 A 1.89,1.89 0 0 0 31.59,59 c 0.23,0.47 -1.83,1.27 -2,0.77 A 1.89,1.89 0 0 0 30,60.91 c -0.16,-0.33 0.1,-0.33 0.32,-0.46 0.43,-0.26 0.45,-0.2 0.6,0.19 0.15,0.39 0.15,0.35 -0.24,0.52 -0.39,0.17 -0.52,0.24 -0.63,-0.1 a 1.9,1.9 0 0 0 0.43,1.1 c -0.07,-0.22 0,-0.34 0.22,-0.42 z m 0.44,-3.35 a 0.43,0.43 0 0 1 0.43,0.28 l -0.09,-0.79 c -0.09,0.58 -1.25,0.49 -1.77,0.55 0.5,-0.51 1.4,-1.15 1.68,-1.78 -0.55,0.06 -2,0.49 -2.32,0 l 0.09,0.74 c 0.06,-0.49 0.92,-0.43 1.35,-0.48 a 10.05,10.05 0 0 0 -1,1 c -0.29,0.39 -0.22,0.51 -0.16,1 0.23,-0.58 1.16,-0.45 1.79,-0.52 z m -2,-2.71 c 0,-0.39 2.21,-0.27 2.11,0.26 a 1.89,1.89 0 0 0 0.1,-1.17 c 0,0.52 -2.2,0.34 -2.12,-0.18 -0.17,0.19 -0.14,0.84 -0.16,1.17 0.15,0.03 0.06,-0.04 0.1,-0.08 z m 0.2,-2 c 0.1,-0.38 2.22,0.15 2,0.66 0.2,-0.14 0.29,-0.77 0.37,-1.07 -0.16,0.25 -0.88,0.2 -1.08,-0.11 0.28,-0.12 1.11,-0.62 1.16,-0.18 l 0.33,-1.12 c -0.19,0.19 -1.28,0.87 -1.61,0.8 C 30.18,52.59 30,51.59 29.92,51.35 l -0.24,0.84 c 0.33,-0.57 0.71,0.74 0.83,1 -0.36,-0.1 -0.95,-0.16 -1,-0.55 l -0.31,1.08 c 0.2,0.04 0.12,-0.04 0.17,-0.08 z m 1.11,-3.31 c 0.2,-0.34 2.1,0.73 1.78,1.17 a 1.91,1.91 0 0 0 0.61,-1 c -0.21,0.43 -0.78,-0.1 -1,-0.26 0.08,-0.13 0.18,-0.42 0.31,-0.5 0.13,-0.08 -0.05,-0.13 0.33,0 0.38,0.13 0.69,0.37 0.48,0.66 a 1.9,1.9 0 0 0 0.61,-1 c -0.23,0.47 -2.12,-0.67 -1.82,-1.1 a 1.9,1.9 0 0 0 -0.61,1 c 0.16,-0.33 0.32,-0.12 0.56,0 0.46,0.18 0.43,0.24 0.21,0.59 -0.22,0.35 -0.18,0.33 -0.56,0.13 -0.38,-0.2 -0.51,-0.26 -0.3,-0.56 -0.24,0.09 -0.5,0.7 -0.66,1 0.1,-0.05 0.04,-0.14 0.09,-0.17 z M 36.22,47 c 0.46,-0.24 0.93,-0.47 1.37,-0.74 0.44,-0.27 0.37,-0.33 0.1,-0.95 0,0.57 -0.75,0.8 -1.21,1.05 0,-0.23 0.3,-0.93 0.2,-1.12 -0.1,-0.19 -0.65,-0.35 -0.85,-0.44 a 2.34,2.34 0 0 1 0.65,-0.33 c 0.32,0 0.46,0.17 0.69,0.21 L 36.86,44.1 35.17,45 c 0.25,0.12 1.2,0.4 1.3,0.63 0.1,0.23 -0.19,1.06 -0.25,1.37 z m 3.65,-1.61 c -0.43,0.12 -0.7,-1.59 -0.8,-1.91 0.39,-0.18 0.62,0.05 0.85,0.26 -0.23,-0.8 -0.37,-0.53 -1.14,-0.31 -0.77,0.22 -1,0.05 -0.81,0.86 0.14,-0.31 0.11,-0.59 0.58,-0.66 0.1,0.37 0.8,2 0.25,2.07 0.24,0.1 0.84,-0.17 1.15,-0.26 C 40,45.28 39.93,45.39 39.88,45.37 Z M 43,45 c -0.16,0.16 -0.79,0.11 -1.08,0.12 0.38,-0.09 0.22,-0.52 -0.08,-0.64 -0.64,-0.24 -1.08,0.6 -0.47,0.67 h -0.75 c 0.57,-0.43 0.8,-1.68 1.06,-2.36 C 42,43.21 42.42,45 43,45 Z m -1.1,-0.64 -0.38,-0.75 -0.3,0.79 z m 1.61,-0.88 c 0.26,-0.23 0.36,-0.49 0.81,-0.35 -0.06,0.38 -0.1,2.11 -0.65,2 a 1.9,1.9 0 0 0 1.16,0.19 c -0.52,0 -0.15,-1.09 -0.09,-1.41 0,-0.1 0,-0.62 0.11,-0.67 0.3,-0.21 0.62,0.48 0.66,0.59 0.1,-0.63 0.17,-0.59 -0.45,-0.69 L 43.61,42.9 Z M 46.78,46 c -0.51,-0.13 0.25,-2.22 0.73,-2 a 1.9,1.9 0 0 0 -1.1,-0.4 c 0.5,0.13 -0.25,2.21 -0.73,2 a 1.9,1.9 0 0 0 1.1,0.4 z m 0.38,0.2 c 0.44,0.27 0.88,0.56 1.34,0.8 0.46,0.24 0.47,0.14 0.86,-0.4 -0.49,0.3 -1.07,-0.23 -1.52,-0.51 0.22,-0.08 0.95,-0.22 1.07,-0.4 0.12,-0.18 0,-0.74 -0.05,-1 a 2.35,2.35 0 0 1 0.61,0.39 c 0.2,0.25 0.09,0.48 0.17,0.7 0.31,-0.52 0.43,-0.51 -0.09,-0.82 l -1.22,-0.73 c 0,0.27 0.27,1.23 0.12,1.44 -0.15,0.21 -1,0.38 -1.28,0.49 z m 2.75,1.68 a 0.27,0.27 0 0 1 -0.3,-0.12 1.91,1.91 0 0 0 0.86,0.81 c -0.41,-0.32 0.49,-1 0.71,-1.22 0.07,-0.07 0.38,-0.5 0.47,-0.5 0.37,0 0.24,0.75 0.21,0.86 0.57,-0.6 0.26,-0.59 -0.32,-1.14 -0.58,-0.55 -0.58,-0.86 -1.15,-0.25 0.18,0 0.62,-0.26 0.78,0.08 0.16,0.34 0,0.11 -0.15,0.33 a 3.93,3.93 0 0 1 -1.1,1.11 z m 2.79,0.55 c -0.3,0.22 -1.36,1.27 -1.64,0.8 a 1.91,1.91 0 0 0 0.69,1 c -0.35,-0.39 1.44,-1.7 1.72,-1.25 a 1.91,1.91 0 0 0 -0.69,-1 c 0.16,0.15 0.12,0.27 -0.07,0.41 z m 1.11,1.66 c -0.34,0.15 -1.58,1 -1.77,0.45 -0.06,0.24 0.28,0.78 0.41,1.06 0,-0.3 0.54,-0.72 0.89,-0.62 -0.14,0.27 -0.44,1.19 -0.77,0.89 l 0.48,1.07 a 3.62,3.62 0 0 1 0.71,-1.65 c 0.25,-0.13 1.08,0.48 1.3,0.62 l -0.36,-0.8 c 0.11,0.65 -1,-0.1 -1.3,-0.24 0.34,-0.16 0.83,-0.49 1.1,-0.21 -0.13,-0.28 -0.3,-0.89 -0.52,-1 0.12,0.18 0.02,0.34 -0.16,0.39 z m 1.75,4.11 a 0.56,0.56 0 0 1 -0.64,0.42 c -0.48,0 -0.35,-0.19 -0.44,-0.73 0.3,0 1,-0.31 1,0.16 a 1.89,1.89 0 0 0 -0.19,-1.16 c 0.13,0.5 -2.05,0.86 -2.1,0.34 a 1.91,1.91 0 0 0 0.19,1.16 c -0.08,-0.35 0.41,-0.48 0.7,-0.43 0.29,0.05 0.13,-0.09 0.28,0.09 0.15,0.18 0.08,0.5 0.11,0.65 -0.31,0 -1,0.32 -1.06,-0.15 a 1.89,1.89 0 0 0 0.19,1.16 c -0.13,-0.5 2.05,-0.86 2.1,-0.34 0.12,-0.26 -0.08,-0.89 -0.13,-1.2 z m -2.12,5.6 1.37,1.41 c -0.72,0.23 -1.95,-0.2 -2.57,0.25 l 0.4,-1 c -0.07,0.38 0.38,0.42 0.61,0.2 0.49,-0.48 -0.08,-1.23 -0.41,-0.71 l 0.28,-0.69 a 1.22,1.22 0 0 0 0.33,0.5 z m 0.15,0.34 -0.25,0.63 h 0.84 z M 53.82,63 c 0,0.48 -1.07,1.69 -1.6,1.16 -0.53,-0.53 0.23,-0.91 0,-1.23 -0.23,-0.32 -0.71,-0.45 -0.9,-0.25 l 0.66,-0.94 c -0.1,0.47 1.52,1.73 1.84,1.26 z m -0.53,0.64 -0.8,-0.56 c -0.42,0.55 0.51,1.16 0.8,0.57 z m -1.16,1.56 a 3.33,3.33 0 0 1 -1.36,-0.28 c -0.21,-0.23 0,-1.2 0,-1.41 -0.2,0.18 -0.56,0.44 -0.59,0.63 0.47,-0.44 0.41,0.49 0.42,0.75 -0.31,-0.07 -1,-0.09 -0.79,-0.49 L 49,65.14 a 3.43,3.43 0 0 1 1.59,0.29 c 0.2,0.23 0.06,1.1 0,1.32 l 0.61,-0.56 c -0.43,0.21 -0.42,-0.38 -0.44,-0.72 0.32,0.08 0.93,0.1 0.69,0.49 l 0.82,-0.76 q -0.04,-0.1 -0.13,0.02 z m -2.43,2.13 c -0.34,0.19 -1.44,-1.69 -0.94,-1.91 a 1.9,1.9 0 0 0 -1,0.56 c 0.31,-0.2 0.38,0.08 0.52,0.29 0.28,0.42 0.3,0.42 -0.11,0.64 -0.41,0.22 -0.4,0.19 -0.59,-0.27 -0.1,-0.23 -0.3,-0.45 0,-0.59 a 1.9,1.9 0 0 0 -1,0.55 c 0.43,-0.28 1.49,1.66 1,1.87 a 1.9,1.9 0 0 0 1,-0.55 c -0.39,0.25 -0.59,-0.43 -0.73,-0.7 a 2,2 0 0 1 0.52,-0.28 c 0.38,0 0,-0.14 0.29,0.1 0.29,0.24 0.39,0.67 0.07,0.8 0.25,0 0.78,-0.35 1.07,-0.5 -0.04,-0.11 -0.04,0 -0.1,-0.01 z m -7.39,0.58 a 0.395,0.395 0 0 0 0,0.79 0.395,0.395 0 0 0 0,-0.79 z"
       id="path6"
       inkscape:connector-curvature="0"
       style="fill:#4c3d35;fill-opacity:1" />
    <path
       d="m 40.17,42.27 h 4.55 L 42.44,27.11 Z m 2.27,-0.05 h -2.21 l 2.22,-14.77 v 0.34 l 2.15,14.38 h -2.16 z m 0,-14.43 v 14.38 h -2.15 z m 0,57.6 2.27,-15.16 H 40.17 Z M 44.66,70.28 42.44,85 V 84.66 L 40.29,70.33 h 2.16 V 70.28 Z M 44.6,70.33 42.44,84.71 V 70.33 Z M 28.46,58.52 V 54 L 13.3,56.25 28.4,58.52 Z M 14,56.25 28.38,54.09 v 2.16 h 0.05 v 2.22 L 13.64,56.25 Z M 28.38,58.41 14,56.25 H 28.36 Z M 56.44,58.53 71.6,56.26 56.42,54 Z M 56.47,54 71.24,56.22 H 70.9 l -14.38,2.19 v -2.16 h -0.05 z m 0.05,0.06 14.38,2.19 H 56.52 Z m -25.17,-6.51 2.39,-2.39 -9.17,-6.78 z m 2.28,-2.38 -1.14,1.13 v 0 l -1.16,1.16 -6.6,-8.93 0.18,0.18 z m -2.27,2.27 -6.43,-8.69 7.56,7.56 z m 22.17,17.51 -2.39,2.39 9.17,6.78 L 53.56,65 Z m 6.42,8.81 -8.69,-6.43 1.13,-1.13 v 0 l 1.14,-1.2 6.6,8.93 -0.18,-0.18 z m -6.43,-8.69 6.42,8.69 -7.55,-7.56 z m -28.94,9.05 9.13,-6.75 v 0 l -2.39,-2.39 z m 7.95,-7.95 1.16,1.16 -8.93,6.6 0.18,-0.18 6.42,-8.69 1.13,1.13 z m -7.59,7.59 7.56,-7.56 1.13,1.13 z m 35.37,-35.38 -9.17,6.78 2.39,2.39 z m -7.95,7.95 -1.16,-1.17 8.93,-6.6 -0.18,0.18 -6.43,8.69 -1.13,-1.13 z m 7.59,-7.59 -7.56,7.56 -1.13,-1.13 z"
       id="path8"
       inkscape:connector-curvature="0"
       style="fill:#4c3d35;fill-opacity:1" />
  </g>
</svg>
